<svg width="87" height="40" viewBox="0 0 87 40" fill="none" xmlns="http://www.w3.org/2000/svg">
<path d="M31.4421 3.90707V0.857498H38.4994V39.4762H31.4421V36.2379V35.3792L30.6953 35.8031C30.2942 36.0307 29.9054 36.28 29.5305 36.5499C26.8194 38.2786 23.7262 39.282 20.5362 39.4683C17.3422 39.6548 14.1533 39.0162 11.2644 37.611C9.25845 36.619 7.44317 35.2665 5.90551 33.6176L5.90557 33.6176L5.89944 33.6112C2.4401 30.0307 0.499299 25.2018 0.5 20.1688C0.520738 17.4838 1.06036 14.8296 2.08767 12.3584C3.46519 9.27833 5.57809 6.60185 8.2315 4.574C10.7879 2.64999 13.7762 1.41308 16.9216 0.975942C20.0669 0.538825 23.2695 0.915298 26.2356 2.0711C27.1365 2.43145 28.1075 2.95875 28.9375 3.42405C29.056 3.4905 29.1722 3.556 29.2849 3.61955C29.5615 3.77545 29.8174 3.91967 30.0359 4.03758C30.3224 4.19212 30.615 4.34172 30.8231 4.39271L31.4421 4.54434V3.90707ZM27.5006 11.7295L27.5006 11.7295C25.1017 9.29616 22.45 8.45196 18.8597 8.45196C13.1657 8.45196 7.92 13.9158 7.92 20.1669C7.92 24.8302 10.6956 28.8334 14.5233 30.7249C18.3711 32.6263 23.2729 32.3907 27.4784 28.6181C31.778 24.7645 32.347 16.646 27.5006 11.7295ZM58.9709 2.12247L58.971 2.12257L58.9803 2.11825C63.5852 -0.00215359 69.8013 -0.114505 74.3435 2.23172L74.5726 1.78822L74.3435 2.23173L74.4165 2.26945C75.2931 2.72211 76.3679 3.27713 77.3619 3.91731C78.1692 4.43724 78.8891 4.99237 79.3997 5.56627L73.7965 7.95367C73.7961 7.95385 73.7956 7.95404 73.7952 7.95423C72.967 8.30132 72.3909 8.56229 71.9789 8.74895C71.9028 8.78341 71.8323 8.81534 71.7668 8.84481C71.3179 9.04698 71.1721 9.09908 71.0823 9.10949C71.0391 9.1145 71.0095 9.11622 70.735 9.01073L70.7004 8.99741C70.4389 8.8967 70.0525 8.74794 69.4129 8.57827C68.2631 8.25985 67.0668 8.15317 65.8803 8.26326C61.0653 8.27489 57.2115 11.8245 55.7038 16.19C54.186 20.5848 55.0064 25.9029 59.6314 29.4833L59.6314 29.4834L59.637 29.4876C61.156 30.6301 62.9229 31.3834 64.7885 31.6832C66.6542 31.9829 68.5631 31.8202 70.3538 31.2089L70.3538 31.209L70.3642 31.2052C71.9495 30.6245 73.4018 29.721 74.633 28.5502L74.6331 28.5503L74.6389 28.5445C75.5367 27.6623 76.2888 26.6385 76.8667 25.5127L76.8684 25.5095C76.9681 25.3118 77.0424 25.108 77.0928 24.9699C77.1104 24.9217 77.1251 24.8815 77.1369 24.8524C77.1775 24.7523 77.2118 24.6912 77.2708 24.6339L85.6726 21.1507C85.2277 25.1414 83.8394 29.6817 81.2644 32.4969L78.8947 34.9158C75.5798 38.0499 70.7011 39.4762 65.904 39.4762C58.8221 39.4762 51.899 34.2299 49.3376 28.3731C48.5287 26.5136 48.0876 25.1705 47.8444 23.7877C47.6007 22.4019 47.5517 20.9551 47.5515 18.8745C47.7009 16.2737 48.3476 13.7282 49.455 11.3818L51.2601 8.42078C53.2217 5.64297 55.8881 3.46564 58.9709 2.12247ZM69.3059 14.6056L69.3138 14.6023L69.3217 14.5989C69.7923 14.3895 70.1907 14.2246 70.6031 14.0539C70.9285 13.9193 71.2626 13.7811 71.6478 13.6145C71.6484 13.6142 71.6489 13.614 71.6495 13.6137L73.8432 12.6862L73.8463 12.6849C74.5703 12.3729 75.2473 12.0968 75.9232 11.8212C75.9891 11.7943 76.0551 11.7674 76.121 11.7405C76.8618 11.4382 77.6053 11.1328 78.4017 10.7813L78.4019 10.7812C78.5216 10.7283 78.6711 10.661 78.8428 10.5836C79.3356 10.3617 80.0109 10.0575 80.685 9.77759C81.1383 9.58938 81.5812 9.41632 81.957 9.29023C82.1436 9.22764 82.3001 9.18144 82.4257 9.14985C82.4336 9.16475 82.4414 9.17951 82.4492 9.1941C82.531 9.34742 82.6365 9.53539 82.7552 9.74678L82.8013 9.82906C83.079 10.3239 83.4323 10.9583 83.7884 11.6853C84.4568 13.0497 85.1157 14.7025 85.3053 16.3189L82.0599 17.7386C80.8606 18.2201 79.8198 18.6628 78.6309 19.1686L78.4237 19.2567L78.4211 19.2578C78.2284 19.341 77.9325 19.4738 77.5658 19.6383C76.8205 19.9727 75.7823 20.4385 74.7204 20.8877C73.9365 21.2194 73.1598 21.5331 72.5143 21.763C72.1912 21.8781 71.9073 21.97 71.6754 22.0324C71.4319 22.098 71.2841 22.1203 71.2163 22.1203C69.7658 22.1203 68.7217 21.774 68.0399 21.1285C67.3631 20.4878 66.9587 19.4719 66.9587 17.9457V17.662C67.0434 17.037 67.2768 16.4416 67.6398 15.9289C68.0614 15.3335 68.6398 14.8749 69.3059 14.6056Z" fill="black" stroke="black"/>
</svg>
